# Blender v2.93.6 OBJ File: 'skybox.blend'
# www.blender.org
mtllib skybox.mtl
o Cube
v 12.983878 12.983878 -12.983878
v 12.983878 -12.983878 -12.983878
v 12.983878 12.983878 12.983878
v 12.983878 -12.983878 12.983878
v -12.983878 12.983878 -12.983878
v -12.983878 -12.983878 -12.983878
v -12.983878 12.983878 12.983878
v -12.983878 -12.983878 12.983878
vt 0.494788 0.654133
vt 0.259681 0.655997
vt 0.256351 0.991445
vt 0.490420 0.988263
vt 0.255124 0.347655
vt 0.003779 0.345863
vt 0.003259 0.657104
vt 0.990906 0.345748
vt 0.705442 0.345108
vt 0.702082 0.654933
vt 0.991321 0.663670
vt 0.493488 0.018598
vt 0.258487 0.016675
vt 0.497110 0.347049
vn 0.0000 -1.0000 0.0000
vn 0.0000 0.0000 -1.0000
vn 1.0000 0.0000 0.0000
vn 0.0000 1.0000 0.0000
vn -1.0000 0.0000 0.0000
vn 0.0000 0.0000 1.0000
usemtl Material
s off
f 1/1/1 3/2/1 7/3/1 5/4/1
f 4/5/2 8/6/2 7/7/2 3/2/2
f 8/8/3 6/9/3 5/10/3 7/11/3
f 6/12/4 8/13/4 4/5/4 2/14/4
f 2/14/5 4/5/5 3/2/5 1/1/5
f 6/9/6 2/14/6 1/1/6 5/10/6
